PathFileType	4	(X/Y/Z)	D:\TRACE\v60_Jaco2_6-2-23\BothDRS_Motion1_4-v60.trc
DataRate	CameraRate	NumFrames	NumMarkers	Units	OrigDataRate	OrigDataStartFrame	OrigNumFrames
100.00	100.00	      17	9	mm	100.00	1	      6979
Frame#	Time	front left toe			Front right toe			aft left toe			aft right toe			Arm			FL body			FR body			AL Body			AR Body			
		X1	Y1	Z1	X2	Y2	Z2	X3	Y3	Z3	X4	Y4	Z4	X5	Y5	Z5	X6	Y6	Z6	X7	Y7	Z7	X8	Y8	Z8	X9	Y9	Z9	

1	0.000	-187.61234	19.49702	-313.79532	224.85056	18.28900	-310.56403	-196.68227	14.55765	318.68274	197.81883	17.26352	308.27765	30.65601	1210.75696	-334.24448	-58.40916	581.02130	-445.55280	101.86906	580.66675	-442.68774	-73.65053	583.39014	500.96228	84.06685	576.89935	504.49780	
2	0.010	-187.63980	19.50690	-313.76706	224.87407	18.31138	-310.56967	-196.63803	14.54971	318.69012	197.92595	17.30061	308.29059	30.86738	1210.73596	-334.15833	-58.33574	581.03113	-445.54297	101.85670	580.66174	-442.67264	-73.58807	583.42560	500.94958	84.10054	576.90656	504.49664	
3	0.020	-187.58539	19.48765	-313.74805	224.86890	18.28438	-310.55283	-196.64856	14.55770	318.71066	197.84241	17.26455	308.27997	30.74389	1210.72107	-334.30466	-58.30246	580.99841	-445.53357	101.89320	580.63763	-442.68411	-73.62061	583.41412	500.92026	84.11121	576.89960	504.49194	
4	0.030	-187.58118	19.45770	-313.77838	224.82806	18.25040	-310.55466	-196.65491	14.53604	318.71365	197.79964	17.23297	308.26538	30.81614	1210.69800	-334.24741	-58.35613	581.03418	-445.57492	101.89406	580.65784	-442.72159	-73.67401	583.41876	500.92340	84.06281	576.90100	504.49039	
5	0.040	-187.57968	19.47614	-313.71213	224.85165	18.24195	-310.55438	-196.62543	14.51135	318.70303	197.83597	17.26095	308.32495	30.87695	1210.71875	-334.24548	-58.36084	581.01508	-445.57675	101.92294	580.59406	-442.71274	-73.64147	583.41986	500.90457	84.14818	576.87738	504.48090	
6	0.050	-187.60300	19.48329	-313.74619	224.83029	18.26791	-310.54431	-196.66249	14.56040	318.71664	197.83365	17.26607	308.27280	30.85768	1210.71667	-334.28601	-58.34396	581.00928	-445.57098	101.92686	580.58075	-442.72772	-73.62363	583.39392	500.89230	84.10110	576.90015	504.48123	
7	0.060	-187.58543	19.48886	-313.78036	224.84843	18.26701	-310.56479	-196.66440	14.56105	318.69968	197.79047	17.26893	308.29343	30.18834	1210.84363	-334.88297	-58.29365	581.01282	-445.55725	101.93404	580.61133	-442.68481	-73.61967	583.44922	500.90894	84.12089	576.90045	504.46368	
8	0.070	-187.58795	19.51455	-313.77899	224.85005	18.27202	-310.55997	-196.68719	14.56614	318.71692	197.81784	17.25139	308.29227	30.96584	1210.68811	-334.19901	-58.27438	580.99170	-445.54855	102.00755	580.58081	-442.70383	-73.59867	583.45404	500.89844	84.11284	576.90082	504.45880	
9	0.080	-187.60408	19.49360	-313.75128	224.83424	18.27225	-310.54593	-196.68976	14.56768	318.70163	197.81151	17.23248	308.29263	30.90261	1210.73669	-334.28607	-58.25209	581.01465	-445.54504	102.00462	580.58295	-442.71356	-73.60386	583.44592	500.87485	84.12532	576.90662	504.48462	
10	0.090	-187.59996	19.47801	-313.77213	224.86504	18.27961	-310.55273	-196.66388	14.55048	318.71558	197.86774	17.28006	308.31296	30.26340	1210.81494	-334.85309	-58.23356	581.00043	-445.56366	102.01473	580.59259	-442.73254	-73.60389	583.44257	500.87094	84.14657	576.90570	504.45166	
11	0.100	-187.58679	19.50305	-313.76602	224.88144	18.28391	-310.52786	-196.63011	14.52860	318.70670	197.80153	17.25071	308.29926	30.39027	1210.78320	-334.78470	-58.16946	580.98743	-445.56699	102.07275	580.57214	-442.72028	-73.64665	583.44281	500.87723	84.11433	576.90326	504.47293	
12	0.110	-187.60968	19.53320	-313.75809	224.88885	18.31135	-310.56235	-196.65480	14.54430	318.69037	197.84465	17.26904	308.27234	31.02632	1210.69202	-334.20334	-58.22458	580.97900	-445.55923	102.07736	580.58264	-442.72614	-73.64631	583.45703	500.86356	84.16261	576.90430	504.45200	
13	0.120	-187.59029	19.51238	-313.77942	224.87854	18.30964	-310.55008	-196.64432	14.55647	318.69577	197.89413	17.31048	308.32886	30.98069	1210.74744	-334.22641	-58.14306	580.95135	-445.55362	102.09361	580.55298	-442.71902	-73.64793	583.44525	500.85257	84.16074	576.90936	504.45621	
14	0.130	-187.61685	19.55317	-313.76224	224.84415	18.28096	-310.57968	-196.68399	14.57972	318.68707	197.85547	17.26681	308.28397	30.47275	1210.75781	-334.70349	-58.31318	580.99884	-445.57986	102.01666	580.60315	-442.73413	-73.61940	583.45105	500.87695	84.16731	576.92072	504.46027	
15	0.140	-187.61722	19.51516	-313.74725	224.82718	18.27314	-310.54645	-196.67436	14.57227	318.70313	197.77954	17.25672	308.33035	30.36385	1210.79456	-334.80432	-58.18245	580.96149	-445.56717	102.04565	580.56360	-442.73154	-73.61344	583.45264	500.86893	84.09541	576.90564	504.46252	
16	0.150	-187.63834	19.52406	-313.76971	224.82849	18.26497	-310.58591	-196.62538	14.51760	318.68439	197.76587	17.23070	308.27158	30.47372	1210.74902	-334.69760	-58.28920	580.98511	-445.60324	102.47791	580.61755	-442.93219	-73.59984	583.46429	500.83557	84.11803	576.90149	504.47223	
17	0.160	-187.58359	19.50549	-313.76474	224.83719	18.27381	-310.54010	-196.66753	14.55095	318.69614	197.81299	17.22191	308.29840	31.01019	1210.72400	-334.21082	-58.20135	580.96448	-445.60928	102.06123	580.59424	-442.73154	-73.64527	583.45886	500.87424	84.11697	576.90070	504.45862	
